HIERARCHY
ROOT Hip
{
	OFFSET	0.0000	0.0000	0.0000
	CHANNELS 6 Xposition Yposition Zposition Xrotation Yrotation Zrotation
	JOINT LowerSpine
	{
		OFFSET	0.0000	9.3027	-5.0341
		CHANNELS 3 Xrotation Yrotation Zrotation
		JOINT MiddleSpine
		{
			OFFSET	0.0000	8.4894	0.4435
			CHANNELS 3 Xrotation Yrotation Zrotation
			JOINT Chest
			{
				OFFSET	0.0000	10.5047	-2.3382
				CHANNELS 3 Xrotation Yrotation Zrotation
				JOINT Neck
				{
					OFFSET	0.0000	23.6718	-0.4923
					CHANNELS 3 Xrotation Yrotation Zrotation
					JOINT Head
					{
						OFFSET	0.0000	13.3678	3.6360
						CHANNELS 3 Xrotation Yrotation Zrotation
						End Site
						{
							OFFSET	0.0001	20.5461	0.6133
						}
					}
				}
				JOINT LClavicle
				{
					OFFSET	2.3899	22.8445	7.8267
					CHANNELS 3 Xrotation Yrotation Zrotation
					JOINT LShoulder
					{
						OFFSET	15.5658	3.2767	-5.3020
						CHANNELS 3 Xrotation Yrotation Zrotation
						JOINT LForearm
						{
							OFFSET	29.6580	-0.1053	-0.2570
							CHANNELS 3 Xrotation Yrotation Zrotation
							JOINT LHand
							{
								OFFSET	24.7410	0.0718	-0.1482
								CHANNELS 3 Xrotation Yrotation Zrotation
								JOINT LFinger1
								{
									OFFSET	9.5889	0.8386	2.6633
									CHANNELS 3 Xrotation Yrotation Zrotation
									JOINT LFinger11
									{
										OFFSET	3.5867	-0.8746	0.6320
										CHANNELS 3 Xrotation Yrotation Zrotation
										JOINT LFinger12
										{
											OFFSET	2.4486	-0.5973	0.4316
											CHANNELS 3 Xrotation Yrotation Zrotation
											End Site
											{
												OFFSET	1.7424	-0.5201	0.2826
											}
										}
									}
								}
								JOINT LFinger2
								{
									OFFSET	9.7320	0.9684	0.2319
									CHANNELS 3 Xrotation Yrotation Zrotation
									JOINT LFinger21
									{
										OFFSET	4.4348	0.0124	-0.0262
										CHANNELS 3 Xrotation Yrotation Zrotation
										JOINT LFinger22
										{
											OFFSET	2.4581	0.0075	-0.0150
											CHANNELS 3 Xrotation Yrotation Zrotation
											End Site
											{
												OFFSET	2.2079	-0.1559	0.0030
											}
										}
									}
								}
								JOINT LFinger3
								{
									OFFSET	9.2231	0.6462	-2.1820
									CHANNELS 3 Xrotation Yrotation Zrotation
									JOINT LFinger31
									{
										OFFSET	4.0241	-0.2038	-0.2519
										CHANNELS 3 Xrotation Yrotation Zrotation
										JOINT LFinger32
										{
											OFFSET	2.2931	-0.1153	-0.1441
											CHANNELS 3 Xrotation Yrotation Zrotation
											End Site
											{
												OFFSET	2.0275	-0.2493	-0.0958
											}
										}
									}
								}
								JOINT LFinger4
								{
									OFFSET	8.5587	-0.6505	-3.7684
									CHANNELS 3 Xrotation Yrotation Zrotation
									JOINT LFinger41
									{
										OFFSET	2.4752	-0.5162	-0.6833
										CHANNELS 3 Xrotation Yrotation Zrotation
										JOINT LFinger42
										{
											OFFSET	1.8151	-0.3780	-0.5014
											CHANNELS 3 Xrotation Yrotation Zrotation
											End Site
											{
												OFFSET	1.6110	-0.4427	-0.3696
											}
										}
									}
								}
								JOINT LFinger0
								{
									OFFSET	1.9835	-1.5014	1.5037
									CHANNELS 3 Xrotation Yrotation Zrotation
									JOINT LFinger01
									{
										OFFSET	3.6931	-1.2130	2.7845
										CHANNELS 3 Xrotation Yrotation Zrotation
										JOINT LFinger02
										{
											OFFSET	2.4319	-0.8702	1.7521
											CHANNELS 3 Xrotation Yrotation Zrotation
											End Site
											{
												OFFSET	1.7883	-0.6156	1.2246
											}
										}
									}
								}
							}
						}
					}
				}
				JOINT RClavicle
				{
					OFFSET	-2.3899	22.8445	7.8267
					CHANNELS 3 Xrotation Yrotation Zrotation
					JOINT RShoulder
					{
						OFFSET	-15.5685	3.2773	-5.3030
						CHANNELS 3 Xrotation Yrotation Zrotation
						JOINT RForearm
						{
							OFFSET	-29.6580	-0.1053	-0.2570
							CHANNELS 3 Xrotation Yrotation Zrotation
							JOINT RHand
							{
								OFFSET	-24.7410	0.0718	-0.1482
								CHANNELS 3 Xrotation Yrotation Zrotation
								JOINT RFinger1
								{
									OFFSET	-9.5889	0.8386	2.6633
									CHANNELS 3 Xrotation Yrotation Zrotation
									JOINT RFinger11
									{
										OFFSET	-3.5867	-0.8746	0.6320
										CHANNELS 3 Xrotation Yrotation Zrotation
										JOINT RFinger12
										{
											OFFSET	-2.4486	-0.5973	0.4316
											CHANNELS 3 Xrotation Yrotation Zrotation
											End Site
											{
												OFFSET	-1.7424	-0.5201	0.2826
											}
										}
									}
								}
								JOINT RFinger2
								{
									OFFSET	-9.7320	0.9684	0.2319
									CHANNELS 3 Xrotation Yrotation Zrotation
									JOINT RFinger21
									{
										OFFSET	-4.4348	0.0124	-0.0262
										CHANNELS 3 Xrotation Yrotation Zrotation
										JOINT RFinger22
										{
											OFFSET	-2.4581	0.0075	-0.0150
											CHANNELS 3 Xrotation Yrotation Zrotation
											End Site
											{
												OFFSET	-2.2079	-0.1559	0.0030
											}
										}
									}
								}
								JOINT RFinger3
								{
									OFFSET	-9.2231	0.6462	-2.1820
									CHANNELS 3 Xrotation Yrotation Zrotation
									JOINT RFinger31
									{
										OFFSET	-4.0241	-0.2037	-0.2519
										CHANNELS 3 Xrotation Yrotation Zrotation
										JOINT RFinger32
										{
											OFFSET	-2.2931	-0.1153	-0.1441
											CHANNELS 3 Xrotation Yrotation Zrotation
											End Site
											{
												OFFSET	-2.0275	-0.2493	-0.0958
											}
										}
									}
								}
								JOINT RFinger4
								{
									OFFSET	-8.5587	-0.6504	-3.7684
									CHANNELS 3 Xrotation Yrotation Zrotation
									JOINT RFinger41
									{
										OFFSET	-2.4752	-0.5162	-0.6833
										CHANNELS 3 Xrotation Yrotation Zrotation
										JOINT RFinger42
										{
											OFFSET	-1.8151	-0.3780	-0.5014
											CHANNELS 3 Xrotation Yrotation Zrotation
											End Site
											{
												OFFSET	-1.6110	-0.4427	-0.3696
											}
										}
									}
								}
								JOINT RFinger0
								{
									OFFSET	-1.9835	-1.5014	1.5037
									CHANNELS 3 Xrotation Yrotation Zrotation
									JOINT RFinger01
									{
										OFFSET	-3.6931	-1.2130	2.7845
										CHANNELS 3 Xrotation Yrotation Zrotation
										JOINT RFinger02
										{
											OFFSET	-2.4319	-0.8701	1.7521
											CHANNELS 3 Xrotation Yrotation Zrotation
											End Site
											{
												OFFSET	-1.7883	-0.6156	1.2246
											}
										}
									}
								}
							}
						}
					}
				}
			}
		}
	}
	JOINT RThigh
	{
		OFFSET	-9.9516	4.2051	-0.8203
		CHANNELS 3 Xrotation Yrotation Zrotation
		JOINT RShin
		{
			OFFSET	-0.7963	-43.2848	0.0000
			CHANNELS 3 Xrotation Yrotation Zrotation
			JOINT RFoot
			{
				OFFSET	0.0000	-42.5030	0.0000
				CHANNELS 3 Xrotation Yrotation Zrotation
				JOINT RToe
				{
					OFFSET	0.0000	-4.6715	9.7686
					CHANNELS 3 Xrotation Yrotation Zrotation
					End Site
					{
						OFFSET	0.0000	0.0000	6.5534
					}
				}
			}
		}
	}
	JOINT LThigh
	{
		OFFSET	9.9515	4.2054	-0.8203
		CHANNELS 3 Xrotation Yrotation Zrotation
		JOINT LShin
		{
			OFFSET	0.7964	-43.2851	0.0000
			CHANNELS 3 Xrotation Yrotation Zrotation
			JOINT LFoot
			{
				OFFSET	0.0000	-42.5030	0.0000
				CHANNELS 3 Xrotation Yrotation Zrotation
				JOINT LToe
				{
					OFFSET	0.0000	-4.6715	9.7687
					CHANNELS 3 Xrotation Yrotation Zrotation
					End Site
					{
						OFFSET	0.0000	0.0000	6.5534
					}
				}
			}
		}
	}
}
MOTION
Frames:	7
Frame Time: 0.0333333000
	-0.8039	40.6781	288.3215	32.945750	-0.152686	-3.463346	0.000000	0.000000	0.000000	-9.039065	-0.378771	1.186117	-30.202300	-1.975539	3.672147	0.000000	0.000000	0.000000	0.000000	0.000000	0.000000	0.000000	0.000000	-9.520467	20.916290	-32.916770	-46.524670	12.016690	-38.725890	-0.145640	0.000000	0.000000	0.000000	0.000000	0.000000	0.000000	0.000000	0.000000	0.000000	0.000000	0.000000	0.000000	0.000000	0.000000	0.000000	0.000000	0.000000	0.000000	0.000000	0.000000	0.000000	0.000000	0.000000	0.000000	0.000000	0.000000	0.000000	0.000000	0.000000	0.000000	0.000000	0.000000	0.000000	0.000000	0.000000	0.000000	0.000000	0.000000	0.000000	0.000000	0.000000	0.000000	0.000000	0.000000	0.000000	0.000000	0.000000	0.000000	0.000000	0.000000	7.917410	26.223600	26.689550	42.343500	15.558240	44.779470	0.200192	0.000000	0.000000	0.000000	0.000000	0.000000	0.000000	0.000000	0.000000	0.000000	0.000000	0.000000	0.000000	0.000000	0.000000	0.000000	0.000000	0.000000	0.000000	0.000000	0.000000	0.000000	0.000000	0.000000	0.000000	0.000000	0.000000	0.000000	0.000000	0.000000	0.000000	0.000000	0.000000	0.000000	0.000000	0.000000	0.000000	0.000000	0.000000	0.000000	0.000000	0.000000	0.000000	0.000000	0.000000	0.000000	0.000000	0.000000	0.000000	-126.918900	3.881049	-9.377579	97.597790	1.516552	20.106870	0.057094	0.139365	0.066518	0.000000	0.000000	0.000000	-129.433100	1.343475	-0.881569	91.380550	0.961574	-5.018919	0.237578	0.095566	0.045455	0.000000	0.000000	0.000000
	-0.8842	40.4857	293.2857	32.636910	-0.087437	-3.625961	0.000000	0.000000	0.000000	-9.032423	-0.357361	1.204565	-30.196550	-1.912573	3.758128	0.000000	0.000000	0.000000	0.000000	0.000000	0.000000	0.000000	0.000000	-9.388366	21.044410	-31.297090	-45.811500	11.665490	-42.022800	-0.165773	0.000000	0.000000	0.000000	0.000000	0.000000	0.000000	0.000000	0.000000	0.000000	0.000000	0.000000	0.000000	0.000000	0.000000	0.000000	0.000000	0.000000	0.000000	0.000000	0.000000	0.000000	0.000000	0.000000	0.000000	0.000000	0.000000	0.000000	0.000000	0.000000	0.000000	0.000000	0.000000	0.000000	0.000000	0.000000	0.000000	0.000000	0.000000	0.000000	0.000000	0.000000	0.000000	0.000000	0.000000	0.000000	0.000000	0.000000	0.000000	0.000000	0.000000	7.923062	25.538040	25.541640	42.032260	14.662590	47.610030	0.205463	0.000000	0.000000	0.000000	0.000000	0.000000	0.000000	0.000000	0.000000	0.000000	0.000000	0.000000	0.000000	0.000000	0.000000	0.000000	0.000000	0.000000	0.000000	0.000000	0.000000	0.000000	0.000000	0.000000	0.000000	0.000000	0.000000	0.000000	0.000000	0.000000	0.000000	0.000000	0.000000	0.000000	0.000000	0.000000	0.000000	0.000000	0.000000	0.000000	0.000000	0.000000	0.000000	0.000000	0.000000	0.000000	0.000000	0.000000	0.000000	-126.740600	3.931059	-9.672793	97.788660	1.646230	20.546980	0.153329	0.054190	0.025789	0.000000	0.000000	0.000000	-129.320500	1.467848	-0.965073	91.752660	0.936862	-4.965534	0.137456	0.051254	0.024440	0.000000	0.000000	0.000000
	-0.9399	40.3113	298.1344	32.567680	-0.366512	-3.615324	0.000000	0.000000	0.000000	-9.019760	-0.330757	1.224903	-30.186760	-1.837515	3.868547	0.000000	0.000000	0.000000	0.000000	0.000000	0.000000	0.000000	0.000000	-9.196874	21.879360	-28.503820	-44.924750	11.624080	-46.586730	-0.208828	0.000000	0.000000	0.000000	0.000000	0.000000	0.000000	0.000000	0.000000	0.000000	0.000000	0.000000	0.000000	0.000000	0.000000	0.000000	0.000000	0.000000	0.000000	0.000000	0.000000	0.000000	0.000000	0.000000	0.000000	0.000000	0.000000	0.000000	0.000000	0.000000	0.000000	0.000000	0.000000	0.000000	0.000000	0.000000	0.000000	0.000000	0.000000	0.000000	0.000000	0.000000	0.000000	0.000000	0.000000	0.000000	0.000000	0.000000	0.000000	0.000000	0.000000	7.921187	25.331150	23.854950	41.416500	14.110650	51.451110	0.249192	0.000000	0.000000	0.000000	0.000000	0.000000	0.000000	0.000000	0.000000	0.000000	0.000000	0.000000	0.000000	0.000000	0.000000	0.000000	0.000000	0.000000	0.000000	0.000000	0.000000	0.000000	0.000000	0.000000	0.000000	0.000000	0.000000	0.000000	0.000000	0.000000	0.000000	0.000000	0.000000	0.000000	0.000000	0.000000	0.000000	0.000000	0.000000	0.000000	0.000000	0.000000	0.000000	0.000000	0.000000	0.000000	0.000000	0.000000	0.000000	-126.848200	3.546973	-9.493794	97.821560	1.667021	20.609920	0.221809	-0.013696	-0.006519	0.000000	0.000000	0.000000	-129.521300	1.102634	-0.731092	92.149540	0.904133	-5.113705	0.096825	0.000300	0.000178	0.000000	0.000000	0.000000
	-1.0250	40.1805	302.8398	32.657290	-0.805421	-3.510183	0.000000	0.000000	0.000000	-9.000888	-0.302698	1.243245	-30.162770	-1.761332	3.970685	0.000000	0.000000	0.000000	0.000000	0.000000	0.000000	0.000000	0.000000	-8.990893	23.073790	-25.078010	-44.291800	11.755210	-51.228360	-0.257152	0.000000	0.000000	0.000000	0.000000	0.000000	0.000000	0.000000	0.000000	0.000000	0.000000	0.000000	0.000000	0.000000	0.000000	0.000000	0.000000	0.000000	0.000000	0.000000	0.000000	0.000000	0.000000	0.000000	0.000000	0.000000	0.000000	0.000000	0.000000	0.000000	0.000000	0.000000	0.000000	0.000000	0.000000	0.000000	0.000000	0.000000	0.000000	0.000000	0.000000	0.000000	0.000000	0.000000	0.000000	0.000000	0.000000	0.000000	0.000000	0.000000	0.000000	7.914472	25.517020	21.918560	40.842940	13.875540	55.037430	0.303878	0.000000	0.000000	0.000000	0.000000	0.000000	0.000000	0.000000	0.000000	0.000000	0.000000	0.000000	0.000000	0.000000	0.000000	0.000000	0.000000	0.000000	0.000000	0.000000	0.000000	0.000000	0.000000	0.000000	0.000000	0.000000	0.000000	0.000000	0.000000	0.000000	0.000000	0.000000	0.000000	0.000000	0.000000	0.000000	0.000000	0.000000	0.000000	0.000000	0.000000	0.000000	0.000000	0.000000	0.000000	0.000000	0.000000	0.000000	0.000000	-127.133600	3.020974	-9.003190	97.762830	1.598319	20.280750	0.238367	-0.007529	-0.003587	0.000000	0.000000	0.000000	-129.896000	0.470758	-0.354863	92.479910	0.872497	-5.315986	0.246993	0.039749	0.018948	0.000000	0.000000	0.000000
	-1.1302	40.1274	307.5604	32.802810	-1.203967	-3.400570	0.000000	0.000000	0.000000	-8.978043	-0.276761	1.257196	-30.127490	-1.681653	4.072287	0.000000	0.000000	0.000000	0.000000	0.000000	0.000000	0.000000	0.000000	-8.850933	24.494630	-21.410210	-44.151710	12.018570	-55.112880	-0.308265	0.000000	0.000000	0.000000	0.000000	0.000000	0.000000	0.000000	0.000000	0.000000	0.000000	0.000000	0.000000	0.000000	0.000000	0.000000	0.000000	0.000000	0.000000	0.000000	0.000000	0.000000	0.000000	0.000000	0.000000	0.000000	0.000000	0.000000	0.000000	0.000000	0.000000	0.000000	0.000000	0.000000	0.000000	0.000000	0.000000	0.000000	0.000000	0.000000	0.000000	0.000000	0.000000	0.000000	0.000000	0.000000	0.000000	0.000000	0.000000	0.000000	0.000000	7.873797	26.065200	19.693700	40.587880	13.888740	57.581210	0.348680	0.000000	0.000000	0.000000	0.000000	0.000000	0.000000	0.000000	0.000000	0.000000	0.000000	0.000000	0.000000	0.000000	0.000000	0.000000	0.000000	0.000000	0.000000	0.000000	0.000000	0.000000	0.000000	0.000000	0.000000	0.000000	0.000000	0.000000	0.000000	0.000000	0.000000	0.000000	0.000000	0.000000	0.000000	0.000000	0.000000	0.000000	0.000000	0.000000	0.000000	0.000000	0.000000	0.000000	0.000000	0.000000	0.000000	0.000000	0.000000	-127.407100	2.578904	-8.475762	97.561150	1.458958	19.790620	0.140064	0.043837	0.020924	0.000000	0.000000	0.000000	-130.273900	-0.147904	0.004408	92.722590	0.845770	-5.508145	0.670364	0.174213	0.082179	0.000000	0.000000	0.000000
	-1.1912	40.1397	312.3536	32.950950	-1.514168	-3.308578	0.000000	0.000000	0.000000	-8.955891	-0.256378	1.265879	-30.085800	-1.594398	4.186177	0.000000	0.000000	0.000000	0.000000	0.000000	0.000000	0.000000	0.000000	-8.775391	26.234580	-17.742650	-44.551560	12.547400	-57.725840	-0.350222	0.000000	0.000000	0.000000	0.000000	0.000000	0.000000	0.000000	0.000000	0.000000	0.000000	0.000000	0.000000	0.000000	0.000000	0.000000	0.000000	0.000000	0.000000	0.000000	0.000000	0.000000	0.000000	0.000000	0.000000	0.000000	0.000000	0.000000	0.000000	0.000000	0.000000	0.000000	0.000000	0.000000	0.000000	0.000000	0.000000	0.000000	0.000000	0.000000	0.000000	0.000000	0.000000	0.000000	0.000000	0.000000	0.000000	0.000000	0.000000	0.000000	0.000000	7.845237	27.052610	17.250810	40.655390	14.253110	58.870460	0.372565	0.000000	0.000000	0.000000	0.000000	0.000000	0.000000	0.000000	0.000000	0.000000	0.000000	0.000000	0.000000	0.000000	0.000000	0.000000	0.000000	0.000000	0.000000	0.000000	0.000000	0.000000	0.000000	0.000000	0.000000	0.000000	0.000000	0.000000	0.000000	0.000000	0.000000	0.000000	0.000000	0.000000	0.000000	0.000000	0.000000	0.000000	0.000000	0.000000	0.000000	0.000000	0.000000	0.000000	0.000000	0.000000	0.000000	0.000000	0.000000	-127.634400	2.266970	-8.020343	97.277030	1.294028	19.291530	-0.073000	0.093051	0.044619	0.000000	0.000000	0.000000	-130.565600	-0.666471	0.339998	92.872250	0.822451	-5.750822	1.259999	0.277188	0.128833	0.000000	0.000000	0.000000
	-1.1988	40.1893	317.1517	33.055970	-1.766315	-3.213390	0.000000	0.000000	0.000000	-8.893778	-0.213867	1.275565	-30.031650	-1.504915	4.297135	0.000000	0.000000	0.000000	0.000000	0.000000	0.000000	0.000000	0.000000	-8.708162	28.552230	-14.190060	-45.240250	13.702050	-58.959280	-0.370284	0.000000	0.000000	0.000000	0.000000	0.000000	0.000000	0.000000	0.000000	0.000000	0.000000	0.000000	0.000000	0.000000	0.000000	0.000000	0.000000	0.000000	0.000000	0.000000	0.000000	0.000000	0.000000	0.000000	0.000000	0.000000	0.000000	0.000000	0.000000	0.000000	0.000000	0.000000	0.000000	0.000000	0.000000	0.000000	0.000000	0.000000	0.000000	0.000000	0.000000	0.000000	0.000000	0.000000	0.000000	0.000000	0.000000	0.000000	0.000000	0.000000	0.000000	7.803451	28.620120	14.831260	40.845210	15.233000	59.088370	0.375745	0.000000	0.000000	0.000000	0.000000	0.000000	0.000000	0.000000	0.000000	0.000000	0.000000	0.000000	0.000000	0.000000	0.000000	0.000000	0.000000	0.000000	0.000000	0.000000	0.000000	0.000000	0.000000	0.000000	0.000000	0.000000	0.000000	0.000000	0.000000	0.000000	0.000000	0.000000	0.000000	0.000000	0.000000	0.000000	0.000000	0.000000	0.000000	0.000000	0.000000	0.000000	0.000000	0.000000	0.000000	0.000000	0.000000	0.000000	0.000000	-127.837900	2.054144	-7.613791	97.132910	1.176200	18.774570	-0.307244	0.137080	0.065997	0.000000	0.000000	0.000000	-130.693300	-1.094949	0.696747	92.880940	0.804562	-6.113519	1.750712	0.257766	0.118382	0.000000	0.000000	0.000000
